<svg xmlns="http://www.w3.org/2000/svg" xmlns:xlink="http://www.w3.org/1999/xlink" width="226" height="66.839" viewBox="0 0 226 66.839">
  <defs>
    <clipPath id="clip-path">
      <rect id="SVGID" width="44.68" height="44.71" fill="none"/>
    </clipPath>
  </defs>
  <g id="Group_26035" data-name="Group 26035" transform="translate(-245 -481)">
    <g id="Layer_2" data-name="Layer 2" transform="translate(247 482.189)">
      <path id="Path_32" data-name="Path 32" d="M7.168,1.563H5.5V65.65H58.874V16.413L41.36,0H5.5V1.563H7.168V3.126H40.109L55.538,17.976V62.524H8.836V1.563H7.168v0Z" transform="translate(5)" fill="#62af85"/>
      <rect id="Rectangle_14" data-name="Rectangle 14" width="45.8" height="24.87" rx="8" transform="translate(-2 20.483)" fill="#62af85"/>
      <text id="CSV" transform="translate(19 39.594)" fill="#fff" font-size="18" font-family="NotoSansCJKjp-Regular, Noto Sans CJK JP"><tspan x="-16.047" y="0">CSV</tspan></text>
    </g>
    <g id="Group_336" data-name="Group 336" transform="translate(-1897 -5912)">
      <g id="Group_334" data-name="Group 334" transform="translate(0 -1)">
        <path id="Path_468" data-name="Path 468" d="M2352.307,6444.165h3.2l-2.448,5.635h-2.027Z" fill="#231815"/>
        <path id="Path_469" data-name="Path 469" d="M2306.373,6455.83c.689.394,1.352.787,2.041,1.156-1.033,2.31-3.515,3.244-5.851,3.244a6.167,6.167,0,0,1-6.563-6.514c0-4.056,2.581-6.637,6.49-6.637,3.613,0,6.391,2.434,6.465,5.924a8.285,8.285,0,0,1-.3,1.5l-9.882-.025a3.725,3.725,0,0,0,3.761,3.245C2303.743,6457.723,2305.587,6457.4,2306.373,6455.83Zm-7.522-3.367h7.449c-.172-1.82-1.6-2.852-3.81-2.852A3.566,3.566,0,0,0,2298.851,6452.463Z" fill="#231815"/>
        <path id="Path_470" data-name="Path 470" d="M2321.618,6451.356c-.59-1.474-2.335-2.015-3.958-2.015-1.475,0-2.9.541-2.9,1.4,0,2.827,9.07.024,9.07,5.334,0,2.827-2.876,4.154-5.58,4.154-2.384,0-5.7-.712-6.735-3.638l2.237-1.007c.663,1.548,2.876,2.31,4.646,2.31,1.425,0,2.655-.491,2.655-1.647,0-2.778-9.047-.024-9.047-5.334,0-2.827,3.122-3.835,5.7-3.835,2.655,0,5.138,1.082,5.974,3.368C2322.994,6450.742,2322.306,6451.037,2321.618,6451.356Z" fill="#231815"/>
        <path id="Path_471" data-name="Path 471" d="M2334.842,6447.2a4.111,4.111,0,0,1,4.155,2.729,6.507,6.507,0,0,1,5.26-2.754c2.679,0,4.474,1.82,4.474,4.7v7.866h-2.8v-7.473a2.339,2.339,0,0,0-2.531-2.458,4.31,4.31,0,0,0-4.032,3.638v6.293h-2.827v-7.473a2.321,2.321,0,0,0-2.507-2.458,4.389,4.389,0,0,0-4.032,3.318v6.613h-2.777v-12.291H2330v2.188A6.131,6.131,0,0,1,2334.842,6447.2Z" fill="#231815"/>
        <path id="Path_472" data-name="Path 472" d="M2365.788,6451.356c-.59-1.474-2.336-2.015-3.958-2.015-1.475,0-2.9.541-2.9,1.4,0,2.827,9.071.024,9.071,5.334,0,2.827-2.876,4.154-5.58,4.154-2.385,0-5.7-.712-6.735-3.638l2.237-1.007c.663,1.548,2.876,2.31,4.645,2.31,1.426,0,2.655-.491,2.655-1.647,0-2.778-9.046-.024-9.046-5.334,0-2.827,3.122-3.835,5.7-3.835,2.655,0,5.138,1.082,5.973,3.368C2367.164,6450.742,2366.476,6451.037,2365.788,6451.356Z" fill="#231815"/>
      </g>
    </g>
    <text id="_" data-name="&gt;&gt;&gt;" transform="translate(360 524)" fill="#0f6db5" font-size="31" font-family="NotoSansCJKjp-Regular, Noto Sans CJK JP"><tspan x="-25.807" y="0">&gt;&gt;&gt;</tspan></text>
    <g id="Group_26032" data-name="Group 26032" transform="translate(408 481)">
      <g id="Group_26031" data-name="Group 26031">
        <g id="Group_26030" data-name="Group 26030" clip-path="url(#clip-path)">
          <g id="Group_26029" data-name="Group 26029">
            <g id="Group_26028" data-name="Group 26028" clip-path="url(#clip-path)">
              <path id="Path_31132" data-name="Path 31132" d="M10.453,8.853l-.017,0a5.246,5.246,0,1,0,4.085,9.551l0,0c.1-.059,15.613-10.652,16.752-11.479a1.2,1.2,0,0,0-.989-2.138c-1.5.3-19.707,4.032-19.835,4.066" transform="translate(11.75 8.539)" fill="#0ba7fd"/>
              <path id="Path_31133" data-name="Path 31133" d="M42.341,30.447a3.481,3.481,0,0,0-1.818-2.484,3.773,3.773,0,0,0-3.426-.006,7.516,7.516,0,0,0-2.622,2.481c-.754,1.009-4.555,6.491-13.186,5.787a13.777,13.777,0,0,1-12.3-15.243,15.4,15.4,0,0,1,2.108-6.4,14.762,14.762,0,0,1,11.65-6.888,14.11,14.11,0,0,1,4.87.475,6.546,6.546,0,0,1,1.639.774,1.244,1.244,0,0,1,.483.732,1.168,1.168,0,0,1-.109.816.779.779,0,0,0-.109.461.766.766,0,0,0,.377.609.937.937,0,0,0,.561.087c.316-.064,2.924-.587,3.488-.713h.006c2.052-.419,3.99-.822,3.99-.822a1.984,1.984,0,0,0,1.352-1.079,1.919,1.919,0,0,0-.338-2.087,19.132,19.132,0,0,0-2.181-2.018A22.121,22.121,0,0,0,25.226.131,22.4,22.4,0,0,0,.538,20.1c-1.248,12.22,7.691,23.47,19.919,24.526A22.228,22.228,0,0,0,39,37.238c.494-.556,3.764-4.365,3.345-6.79" transform="translate(0.755 0)" fill="#0f6db5"/>
            </g>
          </g>
        </g>
      </g>
    </g>
  </g>
</svg>
