<svg xmlns="http://www.w3.org/2000/svg" xmlns:xlink="http://www.w3.org/1999/xlink" width="84.136" height="85" viewBox="0 0 84.136 85">
  <defs>
    <clipPath id="clip-path">
      <rect id="Rectangle_712" data-name="Rectangle 712" width="69" height="69" transform="translate(0.203 0.203)"/>
    </clipPath>
  </defs>
  <g id="Group_955" data-name="Group 955" transform="translate(-1763.864 -179)">
    <g id="Group_199" data-name="Group 199">
      <path id="Path_65" data-name="Path 65" d="M1829.662,245.226h3.74l-2.861,6.585h-2.368Z" fill="#231815"/>
      <path id="Path_66" data-name="Path 66" d="M1775.986,258.858c.805.46,1.58.919,2.385,1.35-1.207,2.7-4.108,3.792-6.837,3.792-4.6,0-7.67-3.016-7.67-7.612,0-4.74,3.017-7.756,7.584-7.756,4.222,0,7.468,2.844,7.555,6.923a9.683,9.683,0,0,1-.345,1.752l-11.548-.029a4.353,4.353,0,0,0,4.4,3.792C1772.913,261.07,1775.067,260.7,1775.986,258.858Zm-8.789-3.935h8.7c-.2-2.126-1.867-3.332-4.452-3.332A4.164,4.164,0,0,0,1767.2,254.923Z" fill="#231815"/>
      <path id="Path_67" data-name="Path 67" d="M1793.8,253.63c-.689-1.723-2.729-2.355-4.625-2.355-1.723,0-3.389.632-3.389,1.637,0,3.3,10.6.029,10.6,6.234,0,3.3-3.36,4.854-6.52,4.854-2.787,0-6.664-.833-7.871-4.251l2.614-1.178c.776,1.81,3.361,2.7,5.429,2.7,1.666,0,3.1-.574,3.1-1.924,0-3.246-10.571-.029-10.571-6.234,0-3.3,3.648-4.481,6.664-4.481,3.1,0,6,1.264,6.98,3.935C1795.409,252.912,1794.6,253.257,1793.8,253.63Z" fill="#231815"/>
      <path id="Path_68" data-name="Path 68" d="M1809.253,248.776a4.8,4.8,0,0,1,4.855,3.188,7.606,7.606,0,0,1,6.147-3.217c3.131,0,5.228,2.126,5.228,5.486v9.192h-3.275v-8.732a2.734,2.734,0,0,0-2.958-2.872,5.036,5.036,0,0,0-4.711,4.251v7.353h-3.3v-8.732a2.711,2.711,0,0,0-2.929-2.872,5.128,5.128,0,0,0-4.712,3.877v7.727h-3.245V249.063h3.245v2.556A7.168,7.168,0,0,1,1809.253,248.776Z" fill="#231815"/>
      <path id="Path_69" data-name="Path 69" d="M1845.415,253.63c-.69-1.723-2.729-2.355-4.625-2.355-1.724,0-3.39.632-3.39,1.637,0,3.3,10.6.029,10.6,6.234,0,3.3-3.361,4.854-6.521,4.854-2.786,0-6.664-.833-7.87-4.251l2.614-1.178c.775,1.81,3.361,2.7,5.429,2.7,1.666,0,3.1-.574,3.1-1.924,0-3.246-10.571-.029-10.571-6.234,0-3.3,3.648-4.481,6.664-4.481,3.1,0,6,1.264,6.981,3.935C1847.023,252.912,1846.219,253.257,1845.415,253.63Z" fill="#231815"/>
    </g>
    <g id="fabicon-01" transform="translate(1771.996 177.697)">
      <g id="Group_954" data-name="Group 954" transform="translate(-1 3)">
        <g id="Group_952" data-name="Group 952" transform="translate(-2.2 -1.9)" clip-path="url(#clip-path)">
          <path id="Path_763" data-name="Path 763" d="M9.451,8.782h0A5.978,5.978,0,0,0,4.7,14.4a5.9,5.9,0,0,0,6.046,6.046,10.164,10.164,0,0,0,3.455-.864h0S32.339,7.055,34.067,6.191A1.587,1.587,0,0,0,34.5,4.9c0-.864-.864-1.3-1.727-1.3C31.044,4.032,9.451,8.351,9.451,8.782" transform="translate(25.099 20.153)" fill="#0ba7fd"/>
        </g>
        <g id="Group_953" data-name="Group 953" transform="translate(-2.2 -1.9)" clip-path="url(#clip-path)">
          <path id="Path_764" data-name="Path 764" d="M49.417,35.658a4.274,4.274,0,0,0-2.159-3.023,4.035,4.035,0,0,0-3.887,0c-1.3.432-2.159,1.3-3.455,3.023-.864,1.3-5.182,7.774-15.547,6.91C15.731,41.7,8.821,33.93,10.117,24.861a12.937,12.937,0,0,1,2.591-7.774,17.485,17.485,0,0,1,13.82-8.205,21.109,21.109,0,0,1,5.614.432l1.727.864a1.587,1.587,0,0,1,.432,1.3v1.3c0,.432,0,.432.432.864H35.6a27.529,27.529,0,0,1,3.887-.864h0c2.591-.432,4.751-.864,4.751-.864.864,0,1.3-.864,1.727-1.3a2.083,2.083,0,0,0-.432-2.591,29.444,29.444,0,0,1-3.023-2.159A22.337,22.337,0,0,0,29.119.244,25.939,25.939,0,0,0,.184,23.565C-1.112,37.817,9.253,51.2,23.5,52.5A26,26,0,0,0,45.1,43.863c.864-.864,4.751-5.182,4.319-8.205" transform="translate(9.749 8.393)" fill="#0f6db5"/>
        </g>
      </g>
    </g>
  </g>
</svg>
