<?xml version="1.0" encoding="utf-8"?>
<!-- Generator: Adobe Illustrator 24.1.0, SVG Export Plug-In . SVG Version: 6.00 Build 0)  -->
<svg version="1.1" id="Layer_1" xmlns="http://www.w3.org/2000/svg" xmlns:xlink="http://www.w3.org/1999/xlink" x="0px" y="0px"
	 viewBox="0 0 448 484" style="enable-background:new 0 0 448 484;" xml:space="preserve">
<style type="text/css">
	.st0{fill:#47A0D8;}
	.st1{fill:#106EB5;}
	.st2{fill:#1C4577;}
	.st3{fill:none;stroke:#ABABAB;stroke-width:2.8346;stroke-miterlimit:10;}
	.st4{fill:#F3F3F3;}
	.st5{fill:#F7D4B4;}
	.st6{fill:#E36670;}
	.st7{fill:#E2C2A8;}
	.st8{fill:#412312;}
	.st9{fill:#E0A271;}
	.st10{fill:none;stroke:#E0A271;stroke-width:0.86;stroke-miterlimit:10;}
	.st11{fill:#FBB03C;}
	.st12{fill:#F6D7BA;}
	.st13{fill:#E6AF89;}
	.st14{opacity:0.45;fill:#FFFFFF;}
	.st15{fill:#010101;}
	.st16{fill:#998776;}
	.st17{fill:none;stroke:#E0A271;stroke-width:0.9;stroke-miterlimit:10;}
	.st18{fill:#24B574;}
	.st19{fill:#E6E6E5;}
	.st20{fill:#C1282D;}
	.st21{fill:none;}
	.st22{fill:#B4B4B4;}
	.st23{fill:#1A1A1A;}
	.st24{fill:none;stroke:#E0A271;stroke-width:1.0857;stroke-miterlimit:10;}
</style>
<g>
	<g>
		<g>
			<path class="st0" d="M132.5,122.8L132.5,122.8L132.5,122.8c-3.5,1-6.1,4.2-6.1,8c0,4.4,3.6,8.1,8,8.2c1.6,0,3.2-0.4,4.4-1.2l0,0
				l0,0c0.2-0.1,24.5-16.7,26.3-18c0.7-0.5,0.8-1.2,0.7-1.8c-0.1-1-1.1-1.8-2.3-1.5C161.3,116.9,132.7,122.7,132.5,122.8z"/>
			<path class="st1" d="M165.3,143.2c-0.4-2.2-1.9-3.4-2.9-3.9c-0.9-0.5-3.1-1.2-5.4,0c-1,0.5-2.2,1.3-4.1,3.9
				c-1.2,1.6-7.1,10.2-20.7,9.1c-11.5-0.9-20.5-11.6-19.3-23.9c0.3-3.2,1.4-7,3.3-10c3.2-5.1,9.2-10.1,18.3-10.8
				c2.8-0.2,5.7,0.1,7.6,0.7c1.2,0.4,2.2,0.9,2.6,1.2c0.4,0.3,0.7,0.7,0.8,1.1c0.1,0.4,0.1,0.9-0.2,1.3c0,0-0.2,0.3-0.2,0.7
				c0,0.3,0.2,0.8,0.6,1c0.2,0.1,0.6,0.2,0.9,0.1c0.5-0.1,4.6-0.9,5.5-1.1c0,0,0,0,0,0c3.2-0.7,6.3-1.3,6.3-1.3
				c1.1-0.2,1.8-1,2.1-1.7c0.4-0.8,0.4-2.2-0.5-3.3c-1.4-1.5-2.8-2.7-3.4-3.2c-4.7-3.7-10.7-6.7-18.1-7.5
				c-19.3-2.1-36.7,11.9-38.7,31.3c-2,19.1,12.1,36.8,31.2,38.4c14.4,1.2,24.4-6.3,29.1-11.6C160.8,153,165.9,147,165.3,143.2z"/>
		</g>
		<g>
			<path class="st2" d="M306.2,147.9c-2.3,0-4.1-1.9-4.1-4.1v-16.3c0-3.6-2.4-6.8-6.8-6.8c-3.3,0-7.2,2.7-7.2,6.8l0,4.1v12.2
				c0,2.3-1.9,4.1-4.1,4.1s-4.1-1.9-4.1-4.1v-12.2c0-1.7,0-2.9,0-4.1c0-2.7-1.5-4.7-2.6-5.6c-0.9-0.7-2-1.1-2.9-1.2
				c-2.1-0.3-3.3,0.9-3.6,1.1c0,0-0.2,0.2-0.3,0.3c-0.2,0.2-0.4,0.3-0.6,0.3c-0.5,0-1-0.3-1-1c0-2.8,1.6-5.2,4.2-6.8
				c1.7-1,3.3-1.2,4-1.2c5.4,0,8.6,3.2,10.1,6.6c5-6.7,10.5-6.6,12.3-6.6c4.2,0,7.1,2.1,8.5,3.8c0.8,1,2.6,3.1,2.6,7.3v19.2
				C310.3,146,308.5,147.9,306.2,147.9z"/>
			<path class="st2" d="M261.6,147.9c-2.3,0-4.1-1.9-4.1-4.1v-26.1c0-2.3,1.8-4.1,4.1-4.1c2.3,0,4.1,1.8,4.1,4.1l0,26.1
				C265.7,146,263.9,147.9,261.6,147.9z"/>
			<path class="st2" d="M321.7,109.7c-0.7-0.2-1.5-0.1-2.2,0.2c-0.7,0.4-1.2,1-1.4,1.7c0,0.1,0,0.1,0,0.2l0,0.3c0,0,0,0.1,0,0.1
				l-1.7,9.3c-0.2,0.9,0.4,1.8,1.3,2.1c0.2,0.1,0.3,0.1,0.5,0.1c0.7,0,1.4-0.4,1.7-1.1l3.8-9c0-0.1,0.1-0.2,0.1-0.3
				C324.1,111.8,323.2,110.2,321.7,109.7z M318.2,112.3L318.2,112.3L318.2,112.3L318.2,112.3z"/>
			<path class="st2" d="M236.2,148.6c-3.3,0-6.2-0.9-8.6-2.6c-0.9-0.6-1.4-1.6-1.5-2.7c-0.1-1.1,0.2-2.1,0.9-2.9
				c0.7-0.8,1.7-1.2,2.7-1.2c0.8,0,1.5,0.3,2.1,0.7c1.6,1.2,3.3,1.9,4.8,1.9c2.5,0,4.2-1.6,4.2-3.4c0-1.7-1.6-2.9-4-4.2l-2.9-1.5
				c-5.5-2.8-8.1-6.1-8.1-10.2c0-5.5,4.6-9.6,10.8-9.6c2.9,0,5.6,0.8,7.9,2.4c0.9,0.6,1.4,1.5,1.5,2.6c0.1,1.1-0.3,2.1-1,2.9
				c-0.7,0.7-1.6,1.1-2.6,1.1c-0.7,0-1.3-0.3-1.9-0.6c-1.3-0.8-2.4-1.5-3.8-1.5c-2.4,0-3.6,1.3-3.6,2.8c0,1.5,1.3,2.1,3.2,3.1
				l3.4,1.7c6.2,3.2,8.6,6.2,8.6,10.7C248.2,144.3,243.3,148.6,236.2,148.6z"/>
			<path class="st2" d="M338.4,148.6c-3.3,0-6.2-0.9-8.6-2.6c-0.9-0.6-1.4-1.6-1.5-2.7c-0.1-1.1,0.2-2.1,0.9-2.9
				c0.7-0.8,1.7-1.2,2.7-1.2c0.8,0,1.5,0.3,2.1,0.7c1.6,1.2,3.3,1.9,4.8,1.9c2.5,0,4.2-1.6,4.2-3.4c0-1.7-1.6-2.9-4-4.2l-2.9-1.5
				c-5.5-2.8-8.1-6.1-8.1-10.2c0-5.5,4.6-9.6,10.8-9.6c2.9,0,5.6,0.8,7.9,2.4c0.9,0.6,1.4,1.5,1.5,2.6c0.1,1.1-0.3,2.1-1,2.9
				c-0.7,0.7-1.6,1.1-2.6,1.1c-0.7,0-1.3-0.3-1.9-0.6c-1.3-0.8-2.4-1.5-3.8-1.5c-2.4,0-3.6,1.3-3.6,2.8c0,1.5,1.3,2.1,3.2,3.1
				l3.4,1.7c6.2,3.2,8.6,6.2,8.6,10.7C350.4,144.3,345.5,148.6,338.4,148.6z"/>
			<g>
				<path class="st2" d="M200.8,113c-11.2,0-17.3,9.4-17.3,17.9c0,10.2,7.7,17.7,17.4,17.7c8.4,0,11.8-3.6,12.7-4.3
					c1.4-1.2,1.7-3,0.7-4.5c-1.3-2-3.3-2.4-4.7-1.4c-0.9,0.6-1.5,1.1-2.4,1.6c-1.4,0.8-3.3,1.4-6.3,1.4c-4.9,0-10.2-3.8-10.2-10.8
					c0-7.7,6.4-10.6,10.3-10.6c4.8,0,7.9,2.4,9.1,5.5c0.2,0.6-0.1,1.2-0.9,1.3c-2,0-8.5,0-11.3,0c-1.4,0-2.5,0.6-3.2,1.5
					c-0.5,0.6-0.7,1.1-0.7,1.4c-0.2,0.7-0.2,1.6-0.1,2.2c0.1,1,0.9,1.4,1.7,1.4c0.8,0,2.1,0,3.3,0c5.9,0,16.9,0,16.9,0
					c1.9,0,2.5-1.8,2.5-2.7C217.8,120.6,210.9,113,200.8,113z"/>
			</g>
		</g>
	</g>
	<g>
		<g>
			<polyline class="st3" points="235.1,182.3 225.1,192.3 214.9,182.1 			"/>
			<polyline class="st3" points="235.1,192.6 225.1,202.6 214.9,192.3 			"/>
			<polyline class="st3" points="235.1,202.8 225.1,212.8 214.9,202.6 			"/>
		</g>
		<g>
			<polyline class="st3" points="295.6,179.3 291.9,192.9 277.9,189.2 			"/>
			<polyline class="st3" points="300.8,188.2 297.1,201.8 283.1,198.1 			"/>
			<polyline class="st3" points="305.9,197 302.2,210.7 288.2,207 			"/>
		</g>
		<g>
			<polyline class="st3" points="154.4,179.3 158.1,192.9 172.1,189.2 			"/>
			<polyline class="st3" points="149.2,188.2 152.9,201.8 166.9,198.1 			"/>
			<polyline class="st3" points="144.1,197 147.8,210.7 161.8,207 			"/>
		</g>
	</g>
	<g>
		<g>
			<path class="st4" d="M390.2,311c-3.4-2.4-20.8-12.7-40.4-12.7c-19.6,0-37,10.3-40.4,12.7c-3.4,2.4-3.4,15.1-3.4,15.1
				s1.2,2.7,11.5,8c10.3,5.4,25.6,6.3,32.3,6.3s22.1-0.9,32.3-6.3c10.3-5.4,11.5-8,11.5-8S393.6,313.4,390.2,311z"/>
			<path class="st5" d="M360.3,299.1c-6-0.9-14.6-0.9-20.6,0c-4.9,0.7-11.2,3.4-11.2,3.4s5.2,14.6,21.5,15.5
				c16.3-0.9,21.5-15.5,21.5-15.5S365.2,299.8,360.3,299.1z"/>
			<g>
				<path class="st6" d="M309.4,311c-3.4,2.4-3.4,15.1-3.4,15.1s1.2,2.7,11.5,8c7.7,4,18.2,5.5,25.8,6l-10.6-39.5
					C320.9,303.9,311.8,309.3,309.4,311z"/>
				<path class="st6" d="M390.3,311c-2.4-1.7-11.4-7.1-23.3-10.3l-10.6,39.5c7.6-0.5,18.1-2.1,25.8-6c10.3-5.4,11.5-8,11.5-8
					S393.7,313.4,390.3,311z"/>
			</g>
			<g>
				<g>
					<path class="st5" d="M337.5,300.7c0,0,0,6.9,12.2,6.9c12.2,0,12.2-6.9,12.2-6.9v-14.5h-24.4V300.7z"/>
				</g>
			</g>
			<g>
				<path class="st7" d="M361.9,300.7v-13l-24.4,5l11.7,15c0.2,0,0.3,0,0.5,0C361.9,307.6,361.9,300.7,361.9,300.7z"/>
			</g>
			<path class="st5" d="M363.1,251.2c-8-4.9-18.7-4.9-26.7,0c-9.4,5.8-6.1,24.4-5,29.9c0.8,4.5,7.2,17.7,18.4,17.7
				c11.2,0,17.5-13.2,18.4-17.7C369.1,275.6,372.5,257,363.1,251.2z"/>
			<g>
				<path class="st5" d="M333.2,282.2c0,0-2.3,0.1-2.7-0.5s-0.8-2-1.3-3.2c-0.5-1.2-0.9-3.8-0.9-4.3s0.3-2.6,1.4-3.4
					c1.2-0.9,1.6,0,1.6,0L333.2,282.2z"/>
				<path class="st5" d="M366.2,282.2c0,0,2.3,0.1,2.7-0.5c0.4-0.6,0.8-2,1.3-3.2c0.5-1.2,0.9-3.8,0.9-4.3s-0.3-2.6-1.4-3.4
					c-1.2-0.9-1.6,0-1.6,0L366.2,282.2z"/>
			</g>
			<g>
				<path class="st8" d="M369.4,261.6c-0.8-8-3.6-17.2-19.7-17.2c-16.1,0-18.9,9.1-19.7,17.2c-0.8,8,0.9,16.9,0.9,16.9l0.4-4.9
					c0,0,1.6-1.1,2.5-5.7c0.8-4.6,0.8-5.7,0.8-5.7s0.6-0.5,3.3-1c0.7-3,1.8-3.3,1.8-3.3c-0.4,0.9-0.5,2.1-0.4,3.1
					c1.1-0.1,2.4-0.3,4-0.4c0.2-1.8,0.7-2.7,0.7-2.7v2.7c1.6-0.1,3.5-0.1,5.8-0.1c3,0,5.5,0.1,7.5,0.2c0-1-0.1-2.1-0.3-2.8
					c0,0,1,1.2,1.6,2.9c5.4,0.5,6.5,1.4,6.5,1.4s0,1.1,0.8,5.7c0.8,4.6,2.5,5.7,2.5,5.7l0.4,4.9
					C368.6,278.5,370.3,269.6,369.4,261.6z"/>
			</g>
			<path class="st8" d="M347.8,247.8c0,0-0.9-2.6-0.9-4.3s0.9-4.3,1.7-5.2c0.9-0.9,3.4-3.4,8.6-2.6s6.9,5.2,6.9,6.9s0,2.6-0.9,4.3
				c-0.9,1.7-3.4,3.4-3.4,3.4L347.8,247.8z"/>
			<path class="st9" d="M351.7,274.2v7.7h1.7c0,0,0-1.7-0.9-2.6L351.7,274.2z"/>
			<path class="st10" d="M346.5,288.4c0,0,0.9,0.9,2.6,0.9s5.2,0,5.2,0"/>
		</g>
		<g>
			<path class="st11" d="M140.6,311c-3.4-2.4-20.8-15.3-40.4-15.3c-19.6,0-37,12.9-40.4,15.3c-3.4,2.4-3.4,15.1-3.4,15.1
				s1.2,2.7,11.5,8c10.3,5.4,25.6,6.3,32.3,6.3s22.1-0.9,32.3-6.3c10.3-5.4,11.5-8,11.5-8S144,313.4,140.6,311z"/>
			<g>
				<g>
					<g>
						<path class="st5" d="M88.1,299.8c0,0,0,6.9,12,6.9c12,0,12-6.9,12-6.9v-14.5H88.1V299.8z"/>
					</g>
				</g>
				<g>
					<path class="st7" d="M112.2,299.8v-13l-24.1,5l11.5,15c0.2,0,0.3,0,0.5,0C112.2,306.7,112.2,299.8,112.2,299.8z"/>
				</g>
			</g>
			<path class="st12" d="M117.7,284.9c0,0,0.8,0.6,1.7,0.8c0.8,0.2,1.2-0.7,1.5-1.3c0.8-1.6,1.6-2.4,1.9-4.1
				c0.3-1.7,0.2-3.2,0.2-3.7s-0.2-1.1-0.2-1.1s-0.4-0.8-1.1-0.8s-2.7,0-2.7,0L117.7,284.9z"/>
			<path class="st12" d="M80.9,284.9c0,0-0.8,0.6-1.7,0.8c-0.8,0.2-1.2-0.7-1.5-1.3c-0.8-1.6-1.6-2.4-1.9-4.1
				c-0.3-1.7-0.2-3.2-0.2-3.7s0.2-1.1,0.2-1.1s0.4-0.8,1.1-0.8c0.6,0,2.7,0,2.7,0L80.9,284.9z"/>
			<path class="st5" d="M99.4,243c-20.1,0-21.7,18.2-21.7,24.8c0,0,1,14.7,2.2,19s5.6,8.9,8.4,10.3c2.8,1.4,7.8,3,11,3s8.2-1.5,11-3
				c2.8-1.4,7.3-6.1,8.4-10.3c1.2-4.2,2.2-19,2.2-19C121.1,256.4,119.5,243,99.4,243z"/>
			<path class="st8" d="M122.5,275.5c0.8-1.4,0.5-3.4,0.8-4.1c0.3-0.7,2.4-3.9,2.4-5.7c0-1.2,0.8-5.7,0-8.1
				c-0.4-1.1-1.4-9.6-4.1-11.4c-2.4-1.6-0.8-3.8-5.7-5.7c-4.1-1.6-7.2-0.9-9-1.6c-1.6-0.7-5.7-3.3-11.4-3.3c-8.1,0-12,1.7-16.3,5.7
				c-3.3,3-2.6,8.6-4.1,10.6c-1.6,2.3-2.4,4.9-2.4,7.3c0,4.5,0.8,4.5,1.6,6.8c0.4,1.2,0.8,2.6,0.8,3.4c0,0.8,0.6,2.1,1,3.7
				c0.5,1.6,2.2,5,2.2,5s0.6-3.1,0.8-4.2c0.2-1.5,1-3.1,1.6-5c0.8-2.7,0.4-2,0.8-4.4c0.5-2.4,4.9-0.6,9-6.1c2.4-3.3,0-8.3,2.4-9
				c2.4-0.8,7.3-4,9.8-3c3.9,1.6,2.4,8,8.1,9.6c4.7,1.3,6.5,3.3,8.1,6.5c0.4,0.7-1.6,5.3,0,7.3c1.6,2,0.8,9.8,0.8,9.8
				S121.7,276.9,122.5,275.5z"/>
			<path class="st13" d="M100.3,269.9v10.3h2.6c0,0,0-2.6-0.9-2.6L100.3,269.9z"/>
			<path class="st10" d="M95.2,286.7c0,0,0.9,0.9,2.6,0.9s7.7,0,7.7,0"/>
			<g>
				<path class="st14" d="M102.9,269.8c-0.9,0.3-0.8,1.6-0.8,2.9s0.8,2.9,0.8,2.9s10.7,1.2,12.3,0.8c1.6-0.4,3.3-3.7,2.5-5.3
					c-0.6-1.2-0.4-0.8-1.2-1.2C114.8,269,105.4,269,102.9,269.8z"/>
				<path class="st15" d="M102.1,273.4c0,0-0.2-1.1-0.2-1.9c0-0.8,0-1.4,0.9-1.8c0.9-0.5,6.8-0.6,7.7-0.6c4.4,0,6.9,0.5,7.4,1.6
					c0.6,1.5,0.3,2.1,0.2,2.1h-0.4c0,0,0.3-0.9-0.2-2c-0.2-0.4-1.2-1.3-7-1.3c-1.4,0-6.7,0.2-7.5,0.6c-0.7,0.4-0.7,0.7-0.7,1.5
					c0,0.8,0.2,1.8,0.2,1.8L102.1,273.4z"/>
				<path class="st14" d="M96.4,269.8c0.9,0.3,0.8,1.6,0.8,2.9s-0.8,2.9-0.8,2.9s-10.7,1.2-12.3,0.8c-1.6-0.4-3.3-3.7-2.5-5.3
					c0.6-1.2,0.4-0.8,1.2-1.2C84.5,269,93.9,269,96.4,269.8z"/>
				<path class="st15" d="M97.2,273.4c0,0,0.2-1.1,0.2-1.9c0-0.8,0-1.4-0.9-1.8c-0.9-0.5-6.8-0.6-7.7-0.6c-4.4,0-6.9,0.5-7.4,1.6
					c-0.6,1.5-0.3,2.1-0.2,2.1h0.4c0,0-0.3-0.9,0.2-2c0.2-0.4,1.2-1.3,7-1.3c1.4,0,6.7,0.2,7.5,0.6c0.7,0.4,0.7,0.7,0.7,1.5
					c0,0.8-0.2,1.8-0.2,1.8L97.2,273.4z"/>
				<path class="st15" d="M97.4,271.6l-0.4-0.1c0-0.1,0.5-1.4,2.7-1.4c2.2,0,2.6,1.3,2.7,1.4l-0.4,0.1c0,0-0.4-1.1-2.3-1.1
					C97.8,270.5,97.4,271.5,97.4,271.6z"/>
			</g>
		</g>
		<g>
			<path class="st8" d="M329.7,323c-3.6-2.5-21.8-16-42.3-16c-20.5,0-38.7,13.5-42.3,16c-3.6,2.5-3.6,15.8-3.6,15.8
				s1.3,2.8,12.1,8.4s26.8,6.6,33.8,6.6c7.1,0,23.1-1,33.8-6.6c10.8-5.6,12.1-8.4,12.1-8.4S333.3,325.5,329.7,323z"/>
			<g>
				<g>
					<g>
						<path class="st5" d="M274.8,311.2c0,0,0,7.3,12.6,7.3c12.6,0,12.6-7.3,12.6-7.3v-15.2h-25.2V311.2z"/>
					</g>
				</g>
				<g>
					<path class="st7" d="M300,311.2v-13.6l-25.2,5.2l12,15.7c0.2,0,0.4,0,0.6,0C300,318.5,300,311.2,300,311.2z"/>
				</g>
			</g>
			<path class="st12" d="M270,289.2c0,0-0.7,0.8-1.5,1c-0.7,0.2-1.3-0.8-1.3-1.5c0-0.8-1.5-4.4-1.6-4.8c-0.2-0.4-0.2-3.8-0.2-4.4
				c0-0.6,0.2-1.3,0.2-1.3s0.4-1,0.9-1s1.6,0,1.6,0L270,289.2z"/>
			<path class="st5" d="M287.6,252.1c0,0-18.2,3.7-18.2,12.7c0,0-1.2,20.1,0,25.9c1.1,5.8,5.9,14.2,8.6,16.2c2.7,1.9,6.6,4,9.7,4
				c3.1,0,7-2,9.7-4c2.7-1.9,7.5-10.4,8.6-16.2c1.1-5.8,0-25.9,0-25.9C305.9,255.9,287.6,252.1,287.6,252.1z"/>
			<path class="st8" d="M293.5,262.1c0,0-1,4-4.5,7.2s-5.9,4-5.9,4s4.1-3.6,4.8-6.1c0,0-2.5,2.6-6.9,5.1c-2.6,1.4-4.8,2.2-4.8,2.2
				s1.4-1.1,1.7-2.2c0,0-1.7,1.1-3.1,2.2c-1.4,1.1-1.4,1.1-1.4,1.1s0.1,1.3,0.5,2.7c0,0-2.1-0.7-2.7-1.8c0,0-0.9,0.9,0.5,3.1
				c-1.4-0.4-2.2-1.8-2.2-1.8s-1,7.7-0.4,11.3c0,0-6.4-7.4-6-18.9c0.3-11.6,3.3-17.7,7.2-21.6c4.5-4.5,10-6.9,13.5-7.7
				s11.7,0.5,14.5,3.6c2.3,2.7,2.1,3.2,2.1,3.2s2.4-1,5.2,1.1c2.4,1.8,7,5.9,8.8,14.4c2.8,14.1-2.7,22-3.7,23.5
				c-3.3,5-7.8,6.8-7.8,6.8s2.7-5.4,2.3-13.5c0.4,0-1.4,1.8-1.4,1.8c0.9-5.4-0.7-5.9-1.8-9.9C301.9,271.8,293.3,266,293.5,262.1z"/>
			<g>
				<polygon class="st16" points="274.5,307.8 270.3,310.2 280.8,324.9 287.4,318.6 				"/>
				<polygon class="st16" points="300.2,307.8 304.5,310.2 293.9,324.9 287.4,318.6 				"/>
			</g>
			<path class="st13" d="M288.4,279.9v10.8h2.7c0,0,0-2.7-0.9-2.7L288.4,279.9z"/>
			<path class="st17" d="M282.1,297.5c0,0,0.9,0.9,2.7,0.9c1.8,0,8.1,0,8.1,0"/>
		</g>
		<g>
			<path class="st8" d="M177.9,254.8c-9.2-6-21.5-6-30.7,0c-10.8,7-10.6,67.5-9.4,74.2c1,5.4,24.7,7.7,24.7,7.7s23.8-2.2,24.7-7.7
				C188.5,322.3,188.8,261.8,177.9,254.8z"/>
			<path class="st18" d="M204.9,323c-3.6-2.5-21.8-13.3-42.3-13.3c-20.5,0-38.7,10.8-42.3,13.3c-3.6,2.5-3.6,15.8-3.6,15.8
				s1.3,2.8,12.1,8.4s26.8,6.6,33.8,6.6c7.1,0,23.1-1,33.8-6.6c10.8-5.6,12.1-8.4,12.1-8.4S208.5,325.5,204.9,323z"/>
			<path class="st5" d="M173.6,310.5c-6.3-0.9-15.3-0.9-21.6,0c-5.2,0.7-11.7,3.6-11.7,3.6s5.4,23.4,22.5,24.3
				c17.1-0.9,22.5-24.3,22.5-24.3S178.8,311.3,173.6,310.5z"/>
			<g>
				<g>
					<path class="st5" d="M149.8,320.2c0,0,0,15.4,12.8,15.4c12.8,0,12.8-15.4,12.8-15.4V297h-25.5V320.2z"/>
				</g>
			</g>
			<g>
				<path class="st7" d="M175.3,312.1v-13.6l-25.5,4.3l12.2,16.6c0.2,0,0.4,0,0.6,0C175.3,319.4,175.3,312.1,175.3,312.1z"/>
			</g>
			<path class="st5" d="M176.5,253.6c-8.4-5.8-19.5-5.8-27.9,0c-9.9,6.9-6.3,29-5.3,35.6c0.9,5.3,7.5,21,19.2,21s18.3-15.7,19.2-21
				C182.9,282.6,186.4,260.5,176.5,253.6z"/>
			<path class="st8" d="M149.7,262.7c0,0-0.4,8.9,14.3,10.1c0,0-3-1-6.9-5.9c0,0,17.7,8.4,24.6,9.7c0,0,3.9,7.2,3.9,10.9
				c0,3.6,0,9.7,0,9.7s9.8-49.5-22.6-49.5S140.3,297,140.3,297l1-9.7c0,0,2-7.2,2-8.4c0-1.2,1-8.4,2-10.9
				C146.2,265.7,149.7,262.7,149.7,262.7z"/>
			<g>
				<path class="st5" d="M145.3,292.8c0,0-2.4,0.1-2.9-0.6s-0.8-2.1-1.3-3.3s-0.9-3.9-0.9-4.5c0-0.6,0.3-2.7,1.5-3.6
					c1.2-0.9,1.7,0,1.7,0L145.3,292.8z"/>
				<path class="st5" d="M179.8,292.8c0,0,2.4,0.1,2.9-0.6c0.4-0.6,0.8-2.1,1.3-3.3s0.9-3.9,0.9-4.5c0-0.6-0.3-2.7-1.5-3.6
					c-1.2-0.9-1.7,0-1.7,0L179.8,292.8z"/>
			</g>
			<path class="st9" d="M164.6,284.4v8.1h1.8c0,0,0-1.8-0.9-2.7L164.6,284.4z"/>
			<path class="st17" d="M159.2,299.3c0,0,0.9,0.9,2.7,0.9s5.4,0,5.4,0"/>
		</g>
		<g>
			<g>
				<path class="st19" d="M276,346.6c-4.3-3.1-26.3-19.3-51-19.3c-24.7,0-46.7,16.3-51,19.3c-4.3,3.1-4.3,19-4.3,19
					s1.5,3.4,14.5,10.1c9.6,5,22.5,6.9,32.1,7.6l5.2-31.2h7l5.2,31.2c9.6-0.7,22.6-2.6,32.1-7.6c13-6.8,14.5-10.1,14.5-10.1
					S280.3,349.7,276,346.6z"/>
				<path class="st20" d="M221.5,352.3l-5.2,31.2c3.4,0.2,6.5,0.3,8.7,0.3c2.3,0,5.3-0.1,8.7-0.3l-5.2-31.2H221.5z"/>
			</g>
			<polygon class="st20" points="228.5,341.4 225,341.4 221.5,341.4 217.4,345.2 221.5,352.3 225,352.3 228.5,352.3 232.6,345.2 			
				"/>
			<g>
				<path class="st21" d="M224,383.7c0.3,0.4,0.6,0.7,1,1.1c0.3-0.4,0.6-0.7,1-1.1c-0.3,0-0.7,0-1,0
					C224.7,383.7,224.3,383.7,224,383.7z"/>
				<path class="st22" d="M173.9,346.6c-4.3,3.1-4.3,19-4.3,19s1.5,3.4,14.5,10.1c12.5,6.5,30.9,7.8,39.9,7.9
					c-12.5-14.8-18.7-44-20.3-52.8C188.6,335.9,177,344.5,173.9,346.6z"/>
				<path class="st22" d="M276,346.6c-3-2.1-14.6-10.7-29.8-15.7c-1.6,8.8-7.8,38-20.3,52.8c8.9-0.1,27.3-1.4,39.9-7.9
					c13-6.8,14.5-10.1,14.5-10.1S280.3,349.7,276,346.6z"/>
			</g>
			<g>
				<g>
					<g>
						<path class="st5" d="M209.8,332.5c0,0,0,8.8,15.2,8.8c15.2,0,15.2-8.8,15.2-8.8v-18.3h-30.4V332.5z"/>
					</g>
				</g>
				<g>
					<path class="st7" d="M240.2,332.5V316l-30.4,6.3l14.5,18.9c0.2,0,0.4,0,0.7,0C240.2,341.3,240.2,332.5,240.2,332.5z"/>
				</g>
			</g>
			<path class="st5" d="M246.4,305.3c0,0,0.9,0.9,1.8,1.1c0.9,0.2,1.6-0.9,1.6-1.8c0-0.9,1.8-5.3,2.1-5.7c0.2-0.5,0.2-4.6,0.2-5.3
				s-0.2-1.6-0.2-1.6s-0.5-1.1-1.1-1.1s-2.1,0-2.1,0L246.4,305.3z"/>
			<path class="st5" d="M204.1,305.3c0,0-0.9,0.9-1.8,1.1c-0.9,0.2-1.6-0.9-1.6-1.8c0-0.9-1.8-5.3-2.1-5.7c-0.2-0.5-0.2-4.6-0.2-5.3
				s0.2-1.6,0.2-1.6s0.5-1.1,1.1-1.1c0.7,0,2.1,0,2.1,0L204.1,305.3z"/>
			<g>
				<g>
					<path class="st5" d="M241.5,264.9c-18.1-12.6-14.6-12.6-32.7,0c-11.5,8-5.2,41.5-5.2,41.5s3.2,14.5,4.5,15.8
						c0.5,0.4,4.5,4.8,9.8,6.7c2.3,0.8,12.4,0.8,14.8-0.2c5.1-2,9.1-6.2,9.5-6.5c1.1-1,4.4-15.8,4.4-15.8S253,272.9,241.5,264.9z"/>
				</g>
			</g>
			<path class="st23" d="M254.2,270.2c-1.6-8-9.2-15.6-16.8-15.6c-8.7-5.4-13.3-6.4-21.7-4.3c-8.7,2.2-18.6,10.5-21,17.8
				c-5.7,17,8.6,32.6,8.6,32.6s-1.5-6.7-1.1-8c1-3.1-2.8-9.9,8.4-12.8c10.2-2.6,26.2-11.7,26.2-11.7s4.3,3.8,7.6,10.3
				c3.3,6.5,2.5,6.8,3.5,9.9c0.4,1.2-1.1,12.3-1.1,12.3S257.3,285.6,254.2,270.2z"/>
			<polygon class="st4" points="209.5,328.4 204.3,331.2 217.1,349 225,341.4 			"/>
			<polygon class="st4" points="240.5,328.4 245.6,331.2 232.9,349 225,341.4 			"/>
			<path class="st13" d="M226.1,294.7v13h3.3c0,0,0-3.3-1.1-3.3L226.1,294.7z"/>
			<path class="st24" d="M218.5,315.9c0,0,1.1,1.1,3.3,1.1s9.8,0,9.8,0"/>
		</g>
	</g>
</g>
</svg>
