<?xml version="1.0" encoding="utf-8"?>
<!-- Generator: Adobe Illustrator 24.1.0, SVG Export Plug-In . SVG Version: 6.00 Build 0)  -->
<svg version="1.1" id="Layer_1" xmlns="http://www.w3.org/2000/svg" xmlns:xlink="http://www.w3.org/1999/xlink" x="0px" y="0px"
	 viewBox="0 0 447 483" style="enable-background:new 0 0 447 483;" xml:space="preserve">
<style type="text/css">
	.st0{fill:#1C4577;}
	.st1{fill:#48A0D9;}
	.st2{fill:#136EB5;}
	.st3{fill:none;stroke:#136EB5;stroke-width:2.8346;stroke-miterlimit:10;}
	.st4{fill:#FFFFFF;}
	.st5{fill:#2B905C;}
</style>
<g>
	<g>
		<g>
			<g>
				<path class="st0" d="M347.5,278.7c-1.4,0-2.5-1.1-2.5-2.5v-9.8c0-2.2-1.4-4.1-4.1-4.1c-2,0-4.3,1.6-4.3,4.1v2.5v7.3
					c0,1.4-1.1,2.5-2.5,2.5s-2.5-1.1-2.5-2.5v-7.3c0-1,0-1.7,0-2.5c0-1.6-0.9-2.8-1.6-3.3c-0.6-0.4-1.2-0.7-1.7-0.7
					c-1.3-0.2-2,0.5-2.1,0.7c0,0-0.1,0.1-0.2,0.2c-0.1,0.1-0.2,0.2-0.4,0.2c-0.3,0-0.6-0.2-0.6-0.6c0-1.7,0.9-3.1,2.5-4.1
					c1-0.6,2-0.7,2.4-0.7c3.2,0,5.2,1.9,6,4c3-4,6.3-4,7.4-4c2.5,0,4.2,1.2,5.1,2.3c0.5,0.6,1.5,1.9,1.5,4.4v11.5
					C350,277.6,348.9,278.7,347.5,278.7z"/>
				<path class="st0" d="M320.8,278.7c-1.4,0-2.5-1.1-2.5-2.5v-15.7c0-1.4,1.1-2.5,2.4-2.5s2.4,1.1,2.4,2.5v15.7
					C323.3,277.6,322.2,278.7,320.8,278.7z"/>
				<path class="st0" d="M356.8,255.9c-0.4-0.1-0.9-0.1-1.3,0.1s-0.7,0.6-0.8,1v0.1v0.2c0,0,0,0,0,0.1l-1,5.6
					c-0.1,0.5,0.2,1.1,0.8,1.2c0.1,0,0.2,0,0.3,0c0.4,0,0.8-0.3,1-0.7l2.3-5.4c0-0.1,0-0.1,0.1-0.2
					C358.2,257.1,357.7,256.2,356.8,255.9z"/>
				<path class="st0" d="M305.6,279.2c-2,0-3.7-0.5-5.1-1.6c-0.5-0.4-0.9-1-0.9-1.6c-0.1-0.6,0.1-1.3,0.6-1.7c0.4-0.5,1-0.7,1.6-0.7
					c0.5,0,0.9,0.2,1.3,0.4c0.9,0.7,2,1.1,2.9,1.1c1.5,0,2.5-1,2.5-2s-1-1.8-2.4-2.5l-1.8-0.9c-3.3-1.7-4.9-3.7-4.9-6.1
					c0-3.3,2.8-5.7,6.5-5.7c1.7,0,3.3,0.5,4.7,1.5c0.5,0.4,0.8,0.9,0.9,1.6c0.1,0.6-0.2,1.3-0.6,1.7s-1,0.6-1.5,0.6
					c-0.4,0-0.8-0.2-1.1-0.4c-0.8-0.5-1.4-0.9-2.3-0.9c-1.5,0-2.2,0.8-2.2,1.7s0.8,1.3,1.9,1.8l2,1c3.7,1.9,5.1,3.7,5.1,6.4
					C312.8,276.6,309.8,279.2,305.6,279.2z"/>
				<path class="st0" d="M366.8,279.2c-2,0-3.7-0.5-5.1-1.6c-0.5-0.4-0.9-1-0.9-1.6c-0.1-0.6,0.1-1.3,0.6-1.7c0.4-0.5,1-0.7,1.6-0.7
					c0.5,0,0.9,0.2,1.3,0.4c0.9,0.7,2,1.1,2.9,1.1c1.5,0,2.5-1,2.5-2s-1-1.8-2.4-2.5l-1.8-0.9c-3.3-1.7-4.9-3.7-4.9-6.1
					c0-3.3,2.8-5.7,6.5-5.7c1.7,0,3.3,0.5,4.7,1.5c0.5,0.4,0.8,0.9,0.9,1.6c0.1,0.6-0.2,1.3-0.6,1.7s-1,0.6-1.5,0.6
					c-0.4,0-0.8-0.2-1.1-0.4c-0.8-0.5-1.4-0.9-2.3-0.9c-1.5,0-2.2,0.8-2.2,1.7s0.8,1.3,1.9,1.8l2,1c3.7,1.9,5.1,3.7,5.1,6.4
					C374,276.6,371.1,279.2,366.8,279.2z"/>
				<g>
					<path class="st0" d="M284.4,257.9c-6.7,0-10.4,5.6-10.4,10.7c0,6.1,4.6,10.6,10.4,10.6c5,0,7.1-2.1,7.6-2.6
						c0.8-0.7,1-1.8,0.4-2.7c-0.8-1.2-2-1.4-2.8-0.8c-0.5,0.4-0.9,0.7-1.4,1c-0.8,0.5-2,0.8-3.8,0.8c-2.9,0-6.1-2.3-6.1-6.4
						c0-4.6,3.8-6.3,6.2-6.3c2.9,0,4.7,1.5,5.5,3.3c0.1,0.4,0,0.7-0.5,0.8c-1.2,0-5.1,0-6.8,0c-0.9,0-1.5,0.4-1.9,0.9
						c-0.3,0.3-0.4,0.7-0.4,0.9c-0.1,0.4-0.1,1-0.1,1.3c0.1,0.6,0.5,0.8,1,0.8s1.2,0,2,0c3.6,0,10.1,0,10.1,0c1.1,0,1.5-1.1,1.5-1.6
						C294.6,262.4,290.4,257.9,284.4,257.9z"/>
				</g>
			</g>
		</g>
		<g>
			<path class="st1" d="M323.8,213.7L323.8,213.7L323.8,213.7c-2.8,0.7-4.8,3.2-4.7,6.2c0,3.4,2.8,6.3,6.2,6.3
				c1.3,0,2.4-0.3,3.4-0.9l0,0l0,0c0.1-0.1,19-13,20.4-14c0.5-0.4,0.6-1,0.6-1.4c-0.1-0.7-0.8-1.4-1.8-1.2
				C346.2,209.1,324,213.7,323.8,213.7z"/>
			<path class="st2" d="M349.3,229.6c-0.3-1.7-1.5-2.6-2.2-3s-2.4-0.9-4.2,0c-0.8,0.4-1.7,1-3.2,3c-0.9,1.2-5.5,7.9-16.1,7
				c-9-0.7-15.9-9-15-18.5c0.3-2.5,1.1-5.4,2.6-7.8c2.5-4,7.1-7.9,14.2-8.4c2.2-0.2,4.4,0.1,5.9,0.6c0.9,0.3,1.7,0.7,2,0.9
				c0.3,0.2,0.5,0.5,0.6,0.9c0.1,0.3,0,0.7-0.1,1c0,0-0.2,0.2-0.1,0.6c0,0.3,0.2,0.6,0.5,0.7c0.2,0.1,0.5,0.2,0.7,0.1
				c0.4-0.1,3.6-0.7,4.2-0.9l0,0c2.5-0.5,4.9-1,4.9-1c0.8-0.2,1.4-0.8,1.6-1.3c0.3-0.6,0.3-1.7-0.4-2.5c-1.1-1.2-2.2-2.1-2.7-2.5
				c-3.6-2.9-8.3-5.2-14.1-5.8c-15-1.6-28.5,9.3-30.1,24.3c-1.5,14.9,9.4,28.6,24.3,29.8c11.2,1,18.9-4.9,22.6-9
				C345.8,237.2,349.8,232.5,349.3,229.6z"/>
		</g>
	</g>
	<g>
		<polyline class="st3" points="211.9,226.3 222,236.4 211.7,246.7 		"/>
		<polyline class="st3" points="222.3,226.3 232.4,236.4 222,246.7 		"/>
		<polyline class="st3" points="232.6,226.3 242.7,236.4 232.4,246.7 		"/>
	</g>
	<g>
		<path class="st4" d="M108.7,280.8c-1.6,0-3-1.3-3-3v-82.7c0-1.6,1.3-3,3-3H137l33.7,33.7v52c0,1.6-1.3,3-3,3H108.7z"/>
		<path class="st5" d="M135.8,195.1l32,32v50.8h-59.1v-82.7h27.1 M138.2,189.2h-29.6c-3.3,0-5.9,2.6-5.9,5.9v82.8
			c0,3.3,2.7,5.9,5.9,5.9h59.1c3.3,0,5.9-2.7,5.9-5.9v-53.2L138.2,189.2L138.2,189.2z"/>
	</g>
	<path class="st5" d="M153.9,254.2H81.1c-1.1,0-2-0.9-2-2v-31.5c0-1.1,0.9-2,2-2h72.8c1.1,0,2,0.9,2,2v31.5
		C155.9,253.3,155,254.2,153.9,254.2z"/>
	<g>
		<path class="st4" d="M91.5,236.5c0-7.2,4.6-11.4,10.2-11.4c2.8,0,5,1.3,6.4,2.8l-2.3,2.8c-1.1-1.1-2.4-1.8-4-1.8
			c-3.3,0-5.8,2.8-5.8,7.5c0,4.8,2.2,7.6,5.7,7.6c1.9,0,3.3-0.9,4.5-2.2l2.3,2.7c-1.8,2.1-4.1,3.2-7,3.2
			C96,247.7,91.5,243.8,91.5,236.5z"/>
		<path class="st4" d="M109.7,244.5l2.5-3c1.6,1.4,3.6,2.4,5.6,2.4c2.3,0,3.5-1,3.5-2.5c0-1.6-1.3-2.1-3.3-3l-2.9-1.2
			c-2.2-0.9-4.4-2.7-4.4-5.9c0-3.6,3.1-6.3,7.6-6.3c2.5,0,5.1,1,6.9,2.8l-2.2,2.7c-1.4-1.2-2.8-1.8-4.6-1.8c-1.9,0-3.2,0.9-3.2,2.3
			c0,1.6,1.6,2.1,3.4,2.9l2.9,1.2c2.7,1.1,4.4,2.8,4.4,5.9c0,3.6-3,6.6-8,6.6C114.7,247.7,111.8,246.6,109.7,244.5z"/>
		<path class="st4" d="M126.7,225.4h4.6l2.9,10.6c0.7,2.4,1.1,4.6,1.8,7.1h0.1c0.7-2.5,1.2-4.6,1.9-7.1l2.8-10.6h4.4l-6.7,21.9h-5.2
			L126.7,225.4z"/>
	</g>
</g>
</svg>
