<?xml version="1.0" encoding="utf-8"?>
<!-- Generator: Adobe Illustrator 24.1.0, SVG Export Plug-In . SVG Version: 6.00 Build 0)  -->
<svg version="1.1" id="Layer_1" xmlns="http://www.w3.org/2000/svg" xmlns:xlink="http://www.w3.org/1999/xlink" x="0px" y="0px"
	 viewBox="0 0 448 484" style="enable-background:new 0 0 448 484;" xml:space="preserve">
<style type="text/css">
	.st0{fill:#E6E6E5;}
	.st1{fill:#D3D3D3;}
	.st2{fill:#FFFFFF;}
	.st3{fill:#F3F3F3;}
	.st4{fill:#47A0D8;}
	.st5{fill:#106EB5;}
	.st6{fill:#1C4577;}
	.st7{fill:#412312;}
	.st8{fill:none;}
	.st9{fill:#1172BA;}
	.st10{fill:#F7D4B4;}
	.st11{fill:#E2C2A8;}
	.st12{fill:#E0A271;}
	.st13{fill:none;stroke:#E0A271;stroke-miterlimit:10;}
	.st14{fill:#CCCCCC;}
	.st15{fill:#FFFFFF;stroke:#1172BA;stroke-width:2.8346;stroke-miterlimit:10;}
	.st16{fill:#96989B;}
	.st17{fill:#555554;}
	.st18{fill:#F7EC1C;}
	.st19{fill:#F3DD09;}
	.st20{fill:#FFFFFF;stroke:#E6E6E5;stroke-miterlimit:10;}
</style>
<g>
	<path class="st0" d="M232,298.3v-5.1h-6.2h-39.2h-6.2v5.1c0,12.3-18.1,23.4-18.1,23.4v4.2h24.3h39.2h24.3v-4.2
		C250.1,321.7,232,310.5,232,298.3z"/>
	<polygon class="st1" points="162.3,325.9 186.6,325.9 225.8,325.9 250.1,325.9 250.1,322.1 162.3,321.7 	"/>
	<rect x="66.3" y="132.8" class="st2" width="279.8" height="149"/>
	<path class="st3" d="M346.1,125.6H66.3c-4.2,0-7.6,3.4-7.6,7.6v157.4c0,4.2,3.4,7.6,7.6,7.6h279.8c4.2,0,7.6-3.4,7.6-7.6V133.2
		C353.7,129,350.3,125.6,346.1,125.6z M346.1,281.8H66.3v-149h279.8V281.8z"/>
	<rect x="66.3" y="132.8" class="st2" width="279.8" height="149"/>
	<g>
		<g>
			<path class="st4" d="M146.4,181.5L146.4,181.5L146.4,181.5c-2.3,0.6-4,2.7-4,5.2c0,2.9,2.4,5.2,5.2,5.3c1.1,0,2-0.3,2.9-0.8l0,0
				l0,0c0.1-0.1,15.9-10.8,17-11.7c0.4-0.3,0.5-0.8,0.5-1.2c-0.1-0.6-0.7-1.2-1.5-1C165,177.7,146.5,181.5,146.4,181.5z"/>
			<path class="st5" d="M167.6,194.8c-0.2-1.4-1.2-2.2-1.8-2.5c-0.6-0.3-2-0.8-3.5,0c-0.7,0.4-1.4,0.9-2.7,2.5
				c-0.8,1-4.6,6.6-13.4,5.9c-7.5-0.6-13.3-7.5-12.5-15.5c0.2-2.1,0.9-4.5,2.1-6.5c2.1-3.3,6-6.6,11.8-7c1.8-0.1,3.7,0.1,4.9,0.5
				c0.8,0.2,1.4,0.6,1.7,0.8c0.2,0.2,0.4,0.4,0.5,0.7c0.1,0.3,0,0.6-0.1,0.8c0,0-0.1,0.2-0.1,0.5c0,0.2,0.1,0.5,0.4,0.6
				c0.1,0.1,0.4,0.1,0.6,0.1c0.3-0.1,3-0.6,3.5-0.7c0,0,0,0,0,0c2.1-0.4,4.1-0.8,4.1-0.8c0.7-0.2,1.1-0.6,1.4-1.1
				c0.3-0.5,0.3-1.4-0.3-2.1c-0.9-1-1.8-1.7-2.2-2c-3-2.4-6.9-4.4-11.7-4.9c-12.5-1.3-23.8,7.7-25.1,20.3
				c-1.3,12.4,7.8,23.8,20.2,24.9c9.3,0.8,15.8-4.1,18.8-7.5C164.7,201.1,168,197.2,167.6,194.8z"/>
		</g>
		<g>
			<path class="st6" d="M258.9,197.8c-1.5,0-2.7-1.2-2.7-2.7v-10.6c0-2.4-1.5-4.4-4.4-4.4c-2.2,0-4.7,1.8-4.7,4.4l0,2.7v7.9
				c0,1.5-1.2,2.7-2.7,2.7c-1.5,0-2.7-1.2-2.7-2.7v-7.9c0-1.1,0-1.9,0-2.7c0-1.8-1-3.1-1.7-3.6c-0.6-0.5-1.3-0.7-1.9-0.8
				c-1.4-0.2-2.2,0.6-2.3,0.7c0,0-0.1,0.1-0.2,0.2c-0.1,0.1-0.3,0.2-0.4,0.2c-0.3,0-0.7-0.2-0.7-0.7c0-1.8,1-3.4,2.7-4.4
				c1.1-0.7,2.1-0.8,2.6-0.8c3.5,0,5.6,2.1,6.5,4.3c3.2-4.4,6.8-4.3,8-4.3c2.7,0,4.6,1.3,5.5,2.5c0.5,0.7,1.7,2,1.7,4.7v12.5
				C261.6,196.5,260.4,197.8,258.9,197.8z"/>
			<path class="st6" d="M230,197.8c-1.5,0-2.7-1.2-2.7-2.7v-16.9c0-1.5,1.2-2.7,2.6-2.7s2.6,1.2,2.6,2.7l0,16.9
				C232.7,196.5,231.5,197.8,230,197.8z"/>
			<path class="st6" d="M269,173c-0.5-0.1-1-0.1-1.4,0.2c-0.4,0.2-0.8,0.6-0.9,1.1c0,0,0,0.1,0,0.1l0,0.2c0,0,0,0,0,0.1l-1.1,6
				c-0.1,0.6,0.2,1.2,0.8,1.3c0.1,0,0.2,0,0.3,0c0.5,0,0.9-0.3,1.1-0.7l2.4-5.8c0-0.1,0-0.1,0.1-0.2C270.5,174.4,270,173.3,269,173z
				 M266.7,174.7L266.7,174.7L266.7,174.7L266.7,174.7z"/>
			<path class="st6" d="M213.6,198.2c-2.1,0-4-0.6-5.6-1.7c-0.6-0.4-0.9-1-1-1.7c-0.1-0.7,0.2-1.4,0.6-1.9c0.5-0.5,1.1-0.8,1.8-0.8
				c0.5,0,1,0.2,1.4,0.5c1,0.8,2.2,1.2,3.1,1.2c1.6,0,2.7-1,2.7-2.2c0-1.1-1-1.9-2.6-2.7l-1.9-1c-3.5-1.8-5.3-4-5.3-6.6
				c0-3.5,3-6.2,7-6.2c1.9,0,3.6,0.5,5.1,1.6c0.6,0.4,0.9,1,1,1.7c0.1,0.7-0.2,1.4-0.7,1.9c-0.4,0.4-1.1,0.7-1.7,0.7
				c-0.4,0-0.8-0.2-1.2-0.4c-0.8-0.5-1.6-1-2.4-1c-1.6,0-2.4,0.8-2.4,1.8c0,1,0.9,1.4,2.1,2l2.2,1.1c4,2,5.6,4,5.6,6.9
				C221.4,195.5,218.2,198.2,213.6,198.2z"/>
			<path class="st6" d="M279.8,198.2c-2.1,0-4-0.6-5.6-1.7c-0.6-0.4-0.9-1-1-1.7c-0.1-0.7,0.2-1.4,0.6-1.9c0.5-0.5,1.1-0.8,1.8-0.8
				c0.5,0,1,0.2,1.4,0.5c1,0.8,2.2,1.2,3.1,1.2c1.6,0,2.7-1,2.7-2.2c0-1.1-1-1.9-2.6-2.7l-1.9-1c-3.5-1.8-5.3-4-5.3-6.6
				c0-3.5,3-6.2,7-6.2c1.9,0,3.6,0.5,5.1,1.6c0.6,0.4,0.9,1,1,1.7c0.1,0.7-0.2,1.4-0.7,1.9c-0.4,0.4-1.1,0.7-1.7,0.7
				c-0.4,0-0.8-0.2-1.2-0.4c-0.8-0.5-1.6-1-2.4-1c-1.6,0-2.4,0.8-2.4,1.8c0,1,0.9,1.4,2.1,2l2.2,1.1c4,2,5.6,4,5.6,6.9
				C287.6,195.5,284.4,198.2,279.8,198.2z"/>
			<g>
				<path class="st6" d="M190.6,175.2c-7.3,0-11.2,6.1-11.2,11.6c0,6.6,5,11.5,11.3,11.5c5.4,0,7.7-2.3,8.2-2.8
					c0.9-0.8,1.1-1.9,0.5-2.9c-0.9-1.3-2.1-1.5-3.1-0.9c-0.6,0.4-1,0.7-1.6,1.1c-0.9,0.5-2.1,0.9-4.1,0.9c-3.2,0-6.6-2.5-6.6-7
					c0-5,4.1-6.8,6.7-6.8c3.1,0,5.1,1.6,5.9,3.6c0.2,0.4,0,0.8-0.6,0.8c-1.3,0-5.5,0-7.3,0c-0.9,0-1.6,0.4-2,1
					c-0.3,0.4-0.4,0.7-0.5,0.9c-0.1,0.5-0.1,1-0.1,1.4c0.1,0.6,0.6,0.9,1.1,0.9c0.5,0,1.3,0,2.2,0c3.8,0,10.9,0,10.9,0
					c1.2,0,1.6-1.2,1.6-1.7C201.7,180.1,197.2,175.2,190.6,175.2z"/>
			</g>
		</g>
	</g>
	<g>
		<path class="st7" d="M362.6,249.9c-10.2-6.7-23.9-6.7-34.1,0c-12.1,7.8-11.8,49-10.4,56.5c1.1,6-4-1.5,27.5-1.5s26.4,7.5,27.5,1.5
			C374.3,298.9,374.6,257.7,362.6,249.9z"/>
		<g>
			<path class="st8" d="M343.8,359.9c0.3,0.3,0.5,0.7,0.8,1c0.3,0,0.6,0,0.9,0s0.6,0,0.9,0c0.3-0.3,0.5-0.7,0.8-1
				c-0.6,0-1.2,0-1.7,0S344.4,359.9,343.8,359.9z"/>
			<path class="st9" d="M298.5,325.7c-4,2.8-4,17.5-4,17.5s1.4,3.1,13.4,9.3c11.2,5.8,27.4,7.1,35.9,7.3
				c-10.5-13.2-15.9-37.2-17.6-46.3C312.1,317.2,301.3,323.7,298.5,325.7z"/>
			<path class="st0" d="M345.5,310.9c-6.8,0-13.4,1.1-19.3,2.6c1.8,9.1,7.2,33.1,17.6,46.3c0.6,0,1.2,0,1.7,0s1.1,0,1.7,0
				c10.5-13.2,15.9-37.2,17.6-46.3C358.9,312,352.3,310.9,345.5,310.9z"/>
			<path class="st9" d="M392.5,325.7c-2.8-2-13.6-8.5-27.7-12.2c-1.8,9.1-7.2,33.1-17.6,46.3c8.5-0.2,24.7-1.5,35.9-7.3
				c12-6.2,13.4-9.3,13.4-9.3S396.5,328.5,392.5,325.7z"/>
		</g>
		<g>
			<g>
				<g>
					<path class="st10" d="M331.3,314.6c0,0,0,9.1,14.2,9.1c14.2,0,14.2-9.1,14.2-9.1v-17.9h-28.3V314.6z"/>
				</g>
			</g>
			<g>
				<path class="st11" d="M359.7,315.6v-17.2l-28.3,5.8l13.5,19.4c0.2,0,0.4,0,0.6,0C359.7,323.7,359.7,315.6,359.7,315.6z"/>
			</g>
		</g>
		<path class="st10" d="M361,248.6c-9.3-6.5-21.7-6.5-31,0c-11,7.6-7,32.3-5.8,39.5c1,5.9,8.3,23.3,21.3,23.3s20.4-17.4,21.3-23.3
			C368.1,280.8,372,256.2,361,248.6z"/>
		<path class="st7" d="M360.3,258.6c0,0-6.6,13.4-23,14.7c0,0,10.4-4.7,14.8-10.1c0,0-19.7,9.4-27.3,10.7c0,0-4.4,8-4.4,12.1
			s0,10.7,0,10.7s-10.9-55,25.2-55s25.2,55,25.2,55l-1.1-10.7c0,0-2.2-8-2.2-9.4s-1.1-9.4-2.2-12.1
			C364.1,262,360.3,258.6,360.3,258.6z"/>
		<g>
			<path class="st10" d="M326.3,292.2c0,0-2.7,0.1-3.2-0.6c-0.5-0.7-0.9-2.3-1.5-3.7c-0.6-1.4-1-4.4-1-5s0.3-3,1.6-4
				c1.4-1,1.9,0,1.9,0L326.3,292.2z"/>
			<path class="st10" d="M364.7,292.2c0,0,2.7,0.1,3.2-0.6s0.9-2.3,1.5-3.7c0.6-1.4,1-4.4,1-5s-0.3-3-1.6-4c-1.4-1-1.9,0-1.9,0
				L364.7,292.2z"/>
		</g>
		<path class="st12" d="M344.5,282.8v9h2c0,0,0-2-1-3L344.5,282.8z"/>
		<path class="st13" d="M341,299.3c0,0,1,1,3,1s6,0,6,0"/>
		<circle class="st14" cx="345.5" cy="331.8" r="1"/>
		<circle class="st14" cx="345.5" cy="338.8" r="1"/>
		<circle class="st14" cx="345.5" cy="345.8" r="1"/>
		<circle class="st14" cx="345.5" cy="352.8" r="1"/>
		<g>
			<polygon class="st3" points="330.7,311.4 326,314 337.7,330.4 345,323.4 			"/>
			<polygon class="st3" points="360.4,311.4 365.1,314 353.4,330.4 346.1,323.4 			"/>
		</g>
	</g>
	<path class="st15" d="M345.5,135.1c-23.4,0-42.3,19-42.3,42.3c0,21.5,16,39.3,36.8,42l6.1,12.9l5.9-13.1
		c20.3-3.1,35.8-20.7,35.8-41.8C387.9,154.1,368.9,135.1,345.5,135.1z"/>
	<g>
		<rect x="337.3" y="189.8" class="st16" width="16.4" height="3.5"/>
		<rect x="337.3" y="195.6" class="st17" width="16.4" height="3.5"/>
		<g>
			<rect x="340.8" y="201.5" class="st17" width="9.3" height="3.5"/>
			<rect x="343.2" y="203.8" class="st17" width="4.7" height="3.5"/>
		</g>
		<g>
			<path class="st18" d="M345.5,149.4c-8.9,0-18.2,6.8-18.2,18.8c0,5.3,1.9,9.6,4.1,12.7h14.2V149.4z"/>
			<path class="st19" d="M345.5,149.4v31.4h-14.2c2.6,3.8,5.6,5.8,5.6,5.8h8.6h8.6c0,0,9.6-6.6,9.6-18.5
				C363.8,156.2,354.4,149.4,345.5,149.4z"/>
		</g>
	</g>
	<path class="st20" d="M260.7,247.5h-148c-1.1,0-2-0.9-2-2v-16c0-1.1,0.9-2,2-2h148c1.1,0,2,0.9,2,2v16
		C262.7,246.6,261.8,247.5,260.7,247.5z"/>
	<path class="st0" d="M305.7,247.5h-32.4c-1.7,0-3-1.3-3-3v-14c0-1.7,1.3-3,3-3h32.4c1.7,0,3,1.3,3,3v14
		C308.7,246.1,307.4,247.5,305.7,247.5z"/>
</g>
</svg>
